<svg xmlns="http://www.w3.org/2000/svg" viewBox="0 0 11.26 10.66"><defs><style>.cls-1{fill:red;}</style></defs><g id="Layer_2" data-name="Layer 2"><g id="Layer_1-2" data-name="Layer 1"><polygon class="cls-1" points="11.26 0.97 11.26 6.3 10.08 6.3 10.08 7.76 8.3 7.76 8.3 9.21 6.52 9.21 6.52 10.66 4.74 10.66 4.74 9.21 2.96 9.21 2.96 7.76 1.18 7.76 1.18 6.3 0 6.3 0 0.97 0.59 0.97 0.59 0.48 1.78 0.48 1.78 0 3.55 0 3.55 0.48 4.15 0.48 4.15 0.97 4.74 0.97 4.74 2.91 6.52 2.91 6.52 0.97 7.11 0.97 7.11 0.48 7.71 0.48 7.71 0 9.48 0 9.48 0.48 10.67 0.48 10.67 0.97 11.26 0.97"/></g></g></svg>