<?xml version="1.0" standalone="no"?>
<!DOCTYPE svg PUBLIC "-//W3C//DTD SVG 20010904//EN"
 "http://www.w3.org/TR/2001/REC-SVG-20010904/DTD/svg10.dtd">
<svg version="1.0" xmlns="http://www.w3.org/2000/svg"
 width="700.000000pt" height="700.000000pt" viewBox="0 0 700.000000 700.000000"
 preserveAspectRatio="xMidYMid meet">
<metadata>
Created by potrace 1.11, written by Peter Selinger 2001-2013
</metadata>
<g transform="translate(0.000000,700.000000) scale(0.100000,-0.100000)"
fill="#000000" stroke="none">
<path d="M1109 6988 c-1 -7 -2 -78 -3 -158 l-1 -145 -365 -1 c-201 -1 -367 -2
-370 -3 -3 0 -4 -72 -4 -159 l1 -158 -171 1 c-94 0 -177 -1 -184 -3 -9 -3 -12
-362 -12 -1751 l0 -1748 367 0 367 0 0 -479 0 -480 550 1 551 0 3 -477 2 -476
553 -1 552 -1 1 -472 1 -473 554 -3 554 -2 0 472 0 473 553 3 552 2 0 475 c0
261 3 476 8 476 4 1 252 2 552 3 l545 1 0 478 0 477 25 1 c14 0 178 2 365 2
l340 2 3 1748 c1 961 -1 1747 -5 1748 -5 0 -87 2 -183 2 l-175 2 0 157 c0 87
-2 159 -5 159 -3 1 -167 3 -365 4 -198 1 -363 3 -366 4 -3 0 -5 65 -5 144 1
78 0 148 -2 155 -3 9 -122 12 -552 12 l-547 0 -1 -137 c0 -76 0 -147 -1 -158
-1 -20 -7 -20 -186 -20 l-185 0 0 -161 0 -161 -176 1 c-107 1 -179 -3 -184 -9
-4 -5 -8 -284 -8 -620 0 -335 -1 -618 -1 -628 -1 -16 -32 -17 -553 -15 l-551
3 0 625 c0 344 -3 630 -7 635 -5 6 -78 10 -184 9 l-176 -1 0 161 0 161 -185 0
c-158 0 -185 2 -186 15 -1 8 -1 79 -1 158 l0 142 -549 0 c-432 0 -549 -3 -550
-12z"/>
</g>
</svg>
