<svg version="1.0" xmlns="http://www.w3.org/2000/svg" width="933.333" height="933.333" viewBox="0 0 700 700"><path d="M110.9 1.2c-.1.7-.2 7.8-.3 15.8l-.1 14.5-36.5.1c-20.1.1-36.7.2-37 .3-.3 0-.4 7.2-.4 15.9l.1 15.8-17.1-.1c-9.4 0-17.7.1-18.4.3C.3 64.1 0 100 0 238.9v174.8h73.4v95.9l55-.1h55.1l.3 47.7.2 47.6 55.3.1 55.2.1.1 47.2.1 47.3 55.4.3 55.4.2v-94.5l55.3-.3 55.2-.2v-47.5c0-26.1.3-47.6.8-47.6.4-.1 25.2-.2 55.2-.3l54.5-.1V414l2.5-.1c1.4 0 17.8-.2 36.5-.2l34-.2.3-174.8c.1-96.1-.1-174.7-.5-174.8-.5 0-8.7-.2-18.3-.2l-17.5-.2V47.8c0-8.7-.2-15.9-.5-15.9-.3-.1-16.7-.3-36.5-.4-19.8-.1-36.3-.3-36.6-.4-.3 0-.5-6.5-.5-14.4.1-7.8 0-14.8-.2-15.5C588.9.3 577 0 534 0h-54.7l-.1 13.7c0 7.6 0 14.7-.1 15.8-.1 2-.7 2-18.6 2H442v32.2l-17.6-.1c-10.7-.1-17.9.3-18.4.9-.4.5-.8 28.4-.8 62 0 33.5-.1 61.8-.1 62.8-.1 1.6-3.2 1.7-55.3 1.5l-55.1-.3V128c0-34.4-.3-63-.7-63.5-.5-.6-7.8-1-18.4-.9l-17.6.1V31.5h-18.5c-15.8 0-18.5-.2-18.6-1.5-.1-.8-.1-7.9-.1-15.8V0h-54.9c-43.2 0-54.9.3-55 1.2z"/></svg>